<svg width="40" height="40" viewBox="0 0 40 40" fill="none" xmlns="http://www.w3.org/2000/svg">
<path fill-rule="evenodd" clip-rule="evenodd" d="M20 3.33333C10.799 3.33333 3.33331 10.799 3.33331 20C3.33331 29.201 10.799 36.6667 20 36.6667C29.1829 36.6667 36.6667 29.201 36.6667 20C36.6667 10.799 29.1829 3.33333 20 3.33333ZM31.0086 11.0159C32.9971 13.4382 34.1902 16.5293 34.2263 19.8735C33.7563 19.7831 29.0564 18.825 24.3203 19.4215C24.2118 19.1866 24.1214 18.9335 24.013 18.6804C23.7238 17.9935 23.3984 17.2885 23.073 16.6197C28.3152 14.4866 30.7013 11.4136 31.0086 11.0159ZM20 5.79176C23.6153 5.79176 26.9233 7.1475 29.436 9.37093C29.1829 9.73247 27.0318 12.6067 21.9703 14.5047C19.6384 10.2205 17.0535 6.71367 16.6558 6.17137C17.7223 5.91829 18.8431 5.79176 20 5.79176ZM13.9443 7.12943C14.3239 7.63557 16.8546 11.1605 19.2227 15.3543C12.5705 17.1258 6.69558 17.0897 6.06289 17.0897C6.98478 12.679 9.96745 9.0094 13.9443 7.12943ZM5.75558 20.0181C5.75558 19.8735 5.75558 19.7289 5.75558 19.5842C6.37019 19.6023 13.2755 19.6927 20.3796 17.5597C20.7953 18.355 21.1749 19.1685 21.5365 19.9819C21.3557 20.0362 21.1569 20.0904 20.9761 20.1446C13.637 22.5127 9.73245 28.9841 9.40708 29.5264C7.14748 27.0137 5.75558 23.6696 5.75558 20.0181ZM20 34.2444C16.71 34.2444 13.6731 33.1236 11.2689 31.2437C11.522 30.7195 14.4143 25.1518 22.4403 22.35C22.4765 22.3319 22.4945 22.3319 22.5307 22.3138C24.5372 27.5018 25.3507 31.8583 25.5676 33.1056C23.8503 33.8467 21.9703 34.2444 20 34.2444ZM27.9356 31.8041C27.791 30.9364 27.0318 26.7787 25.1699 21.6631C29.6349 20.9581 33.5394 22.115 34.0274 22.2777C33.4128 26.2364 31.1352 29.6529 27.9356 31.8041Z" fill="white"/>
</svg>
