<svg width="40" height="40" viewBox="0 0 40 40" fill="none" xmlns="http://www.w3.org/2000/svg">
<path d="M37.7778 0H2.22222C1.63285 0 1.06762 0.234126 0.650874 0.650874C0.234126 1.06762 0 1.63285 0 2.22222V37.7778C0 38.3671 0.234126 38.9324 0.650874 39.3491C1.06762 39.7659 1.63285 40 2.22222 40H37.7778C38.3671 40 38.9324 39.7659 39.3491 39.3491C39.7659 38.9324 40 38.3671 40 37.7778V2.22222C40 1.63285 39.7659 1.06762 39.3491 0.650874C38.9324 0.234126 38.3671 0 37.7778 0V0ZM33.2311 9.47778L31.0844 11.5333C30.9938 11.6025 30.9238 11.6952 30.8823 11.8014C30.8407 11.9076 30.8292 12.0232 30.8489 12.1356V27.2489C30.8292 27.3612 30.8407 27.4768 30.8823 27.583C30.9238 27.6892 30.9938 27.782 31.0844 27.8511L33.1778 29.9089V30.3622H22.6422V29.9089L24.8133 27.8022C25.0289 27.5889 25.0289 27.5244 25.0289 27.2V14.9822L18.9933 30.3067H18.1756L11.1511 14.9822V25.2533C11.1234 25.4668 11.1441 25.6837 11.2119 25.888C11.2796 26.0923 11.3925 26.2787 11.5422 26.4333L14.3667 29.8578V30.3089H6.35778V29.8578L9.18222 26.4333C9.33089 26.2788 9.44128 26.0915 9.50457 25.8866C9.56786 25.6817 9.58227 25.4648 9.54667 25.2533V13.3778C9.56328 13.2152 9.54136 13.051 9.48267 12.8985C9.42399 12.746 9.33019 12.6095 9.20889 12.5L6.69778 9.47778V9.02667H14.4889L20.5111 22.2333L25.8044 9.02667H33.2333V9.47778H33.2311Z" fill="#F8F8F8"/>
</svg>
